<svg xmlns="http://www.w3.org/2000/svg" viewBox="0 0 533.5 544.3" width="30" height="30">
  <path fill="#4285F4" d="M533.5 278.4c0-17.6-1.4-35.2-4.3-52.3H272v98.9h147.1c-6.4 34.4-25.9 63.5-55.1 83v68h88.9c52-47.9 80.6-118.5 80.6-197.6z"/>
  <path fill="#34A853" d="M272 544.3c74.7 0 137.3-24.7 183.1-66.9l-88.9-68c-24.7 16.5-56.4 26.1-94.2 26.1-72.4 0-133.7-48.9-155.7-114.7H25.8v71.9c45.2 89.3 137.5 151.6 246.2 151.6z"/>
  <path fill="#FBBC05" d="M116.3 320.8c-10.5-30.8-10.5-63.8 0-94.6V154.3H25.8c-45.2 89.3-45.2 195.7 0 285z"/>
  <path fill="#EA4335" d="M272 107.2c39.3 0 74.6 13.5 102.3 39.8l76.6-76.6C409.3 24.7 346.7 0 272 0 163.3 0 71 62.3 25.8 151.6l90.5 71.9c22-65.8 83.3-114.7 155.7-114.7z"/>
</svg>
