
<svg xmlns="http://www.w3.org/2000/svg" viewBox="0 0 448 512" width="30" height="30" fill="#25D366">
  <path d="M380.9 97.1C339.2 55.4 283.4 32 224.5 32 112.3 32 16 128.3 16 240c0 42.2 11.1 83.4 32.1 119.6L0 480l125.2-48.5c34.4 18.9 72.8 28.9 111.3 28.9h.1c111.6 0 207.9-96.3 207.9-208 0-58.9-23.4-114.7-63.7-155.3zM224.5 438.7c-33.2 0-65.8-8.9-94.2-25.8l-6.7-4-74.3 28.8 27.7-76.4-4.4-7c-19.4-30.6-29.7-66.1-29.7-102.3 0-105.9 86.1-192 192.1-192 51.3 0 99.5 20 135.7 56.3s56.3 84.4 56.3 135.7c0 105.9-86.1 192-192.1 192zm101.5-138.6c-5.6-2.8-33.1-16.3-38.2-18.1-5.1-1.9-8.8-2.8-12.5 2.8s-14.3 18.1-17.5 21.8c-3.2 3.7-6.4 4.2-11.9 1.4s-23.2-8.5-44.2-27.1c-16.3-14.5-27.3-32.4-30.5-37.9-3.2-5.6-.3-8.6 2.4-11.4 2.5-2.5 5.6-6.4 8.3-9.6 2.8-3.2 3.7-5.6 5.6-9.3 1.9-3.7.9-7-0.5-9.8s-12.5-30-17.1-41.1c-4.5-10.8-9.1-9.3-12.5-9.5-3.2-.2-7-.2-10.8-.2s-10 1.4-15.2 7c-5.1 5.6-20 19.5-20 47.6s20.5 55.3 23.4 59.1c2.8 3.7 40.3 61.6 97.7 86.4 13.7 5.9 24.4 9.4 32.8 12 13.8 4.4 26.3 3.8 36.2 2.3 11.1-1.7 33.1-13.5 37.8-26.5s4.7-24.2 3.3-26.5c-1.3-2.3-5.1-3.7-10.6-6.4z"/>
</svg>
